<svg xmlns="http://www.w3.org/2000/svg" width="595.0" height="841.0" viewBox="0 0 595.0 841.0">
<line x1="111.660" y1="126.102" x2="480.462" y2="126.102" stroke="#000000" stroke-width="0.480" stroke-opacity="1.000" shape-rendering="geometricPrecision"/>
<line x1="111.660" y1="127.540" x2="480.462" y2="127.540" stroke="#000000" stroke-width="0.480" stroke-opacity="1.000" shape-rendering="geometricPrecision"/>
<line x1="420.614" y1="636.024" x2="500.611" y2="636.024" stroke="#000000" stroke-width="0.240" stroke-opacity="1.000" shape-rendering="geometricPrecision"/>
<line x1="420.614" y1="636.743" x2="500.611" y2="636.743" stroke="#000000" stroke-width="0.240" stroke-opacity="1.000" shape-rendering="geometricPrecision"/>
<line x1="86.473" y1="146.000" x2="86.473" y2="749.660" stroke="#000000" stroke-width="0.360" stroke-opacity="1.000" shape-rendering="geometricPrecision"/>
<line x1="119.336" y1="146.000" x2="119.336" y2="384.779" stroke="#000000" stroke-width="0.360" stroke-opacity="1.000" shape-rendering="geometricPrecision"/>
<line x1="177.744" y1="146.000" x2="177.744" y2="246.570" stroke="#000000" stroke-width="0.360" stroke-opacity="1.000" shape-rendering="geometricPrecision"/>
<line x1="275.732" y1="146.000" x2="275.732" y2="384.779" stroke="#000000" stroke-width="0.360" stroke-opacity="1.000" shape-rendering="geometricPrecision"/>
<line x1="353.810" y1="146.000" x2="353.810" y2="246.570" stroke="#000000" stroke-width="0.360" stroke-opacity="1.000" shape-rendering="geometricPrecision"/>
<line x1="403.463" y1="246.570" x2="403.463" y2="384.779" stroke="#000000" stroke-width="0.360" stroke-opacity="1.000" shape-rendering="geometricPrecision"/>
<line x1="505.768" y1="146.000" x2="505.768" y2="749.660" stroke="#000000" stroke-width="0.360" stroke-opacity="1.000" shape-rendering="geometricPrecision"/>
<line x1="86.354" y1="146.000" x2="506.008" y2="146.000" stroke="#000000" stroke-width="0.360" stroke-opacity="1.000" shape-rendering="geometricPrecision"/>
<line x1="119.216" y1="196.225" x2="506.008" y2="196.225" stroke="#000000" stroke-width="0.360" stroke-opacity="1.000" shape-rendering="geometricPrecision"/>
<line x1="86.354" y1="246.570" x2="506.008" y2="246.570" stroke="#000000" stroke-width="0.360" stroke-opacity="1.000" shape-rendering="geometricPrecision"/>
<line x1="119.216" y1="273.541" x2="506.008" y2="273.541" stroke="#000000" stroke-width="0.360" stroke-opacity="1.000" shape-rendering="geometricPrecision"/>
<line x1="86.354" y1="384.779" x2="506.008" y2="384.779" stroke="#000000" stroke-width="0.360" stroke-opacity="1.000" shape-rendering="geometricPrecision"/>
<line x1="86.354" y1="749.660" x2="506.008" y2="749.660" stroke="#000000" stroke-width="0.360" stroke-opacity="1.000" shape-rendering="geometricPrecision"/>
<line x1="86.473" y1="145.281" x2="86.473" y2="750.379" stroke="#000000" stroke-width="1.439" stroke-opacity="1.000" shape-rendering="geometricPrecision"/>
<line x1="505.768" y1="145.281" x2="505.768" y2="750.379" stroke="#000000" stroke-width="1.439" stroke-opacity="1.000" shape-rendering="geometricPrecision"/>
<line x1="85.754" y1="146.000" x2="506.488" y2="146.000" stroke="#000000" stroke-width="1.439" stroke-opacity="1.000" shape-rendering="geometricPrecision"/>
<line x1="85.754" y1="749.660" x2="506.488" y2="749.660" stroke="#000000" stroke-width="1.439" stroke-opacity="1.000" shape-rendering="geometricPrecision"/>
</svg>